<svg width="191" height="48" viewBox="0 0 191 48" fill="none" xmlns="http://www.w3.org/2000/svg">
<path fill-rule="evenodd" clip-rule="evenodd" d="M134.179 31.7975C134.179 34.1621 132.263 36.079 129.898 36.079V36.079C129.764 36.079 129.656 35.9705 129.656 35.8366V34.2794C127.703 35.764 125.217 36.4884 122.982 36.4884C120.857 36.4884 118.897 35.8968 117.442 34.6935C115.961 33.4689 115.102 31.6865 115.102 29.5491C115.102 27.1429 116.255 25.245 118.077 23.9979C119.856 22.7806 122.231 22.2005 124.784 22.2005C126.608 22.2005 128.291 22.4475 129.656 22.7647V22.4666C129.656 20.8768 129.166 19.7684 128.35 19.0399C127.513 18.2919 126.148 17.779 124.088 17.779C122.284 17.779 120.013 18.3255 118.482 19.1089L117.423 19.6514C117.139 19.7966 116.797 19.6186 116.752 19.3029V19.3029C116.43 16.9929 117.561 14.6316 119.807 14.0026C121.223 13.6061 122.689 13.3984 124.211 13.3984C127.249 13.3984 129.776 14.161 131.552 15.7901C133.345 17.4354 134.179 19.7862 134.179 22.5484V31.7975ZM129.656 27.0367C128.413 26.6798 126.775 26.4172 124.702 26.4172C123.041 26.4172 121.715 26.7426 120.85 27.2811C120.049 27.7801 119.625 28.4594 119.625 29.4263C119.625 30.3978 119.962 31.007 120.453 31.4029C120.983 31.8305 121.845 32.1283 123.064 32.1283C126.529 32.1283 129.231 29.8682 129.656 27.5755V27.0367Z" fill="#392B42"/>
<path fill-rule="evenodd" clip-rule="evenodd" d="M105.161 13.8078C105.327 13.8078 105.461 13.9421 105.461 14.1078V14.8352C106.894 13.8712 108.621 13.3984 110.149 13.3984C110.189 13.3984 110.229 13.3987 110.268 13.3992C112.696 13.4286 114.048 15.9328 113.815 18.349V18.349C113.8 18.5007 113.645 18.597 113.503 18.5429L112.182 18.0418C111.78 17.8893 111.17 17.7585 110.108 17.7585C108.72 17.7585 107.613 18.2479 106.836 19.1353C106.045 20.0399 105.482 21.4932 105.482 23.6129V31.7781C105.482 34.1534 103.556 36.079 101.181 36.079V36.079C101.046 36.079 100.938 35.97 100.938 35.8355V18.0418V14.1078C100.938 13.9421 101.072 13.8078 101.237 13.8078H105.161Z" fill="#392B42"/>
<path fill-rule="evenodd" clip-rule="evenodd" d="M91.6787 31.4771C93.7466 30.7522 96.2103 31.6951 96.6447 33.8428V33.8428C96.6634 33.9352 96.6211 34.0293 96.5395 34.0766L95.8632 34.4691C93.34 35.9335 90.7515 36.4884 88.0412 36.4884C84.4414 36.4884 81.3009 35.3559 79.0453 33.3016C76.7801 31.2386 75.4932 28.3212 75.4932 24.9434C75.4932 18.4105 80.2722 13.3984 86.9358 13.3984C90.7032 13.3984 93.6547 14.8604 95.5312 17.2128C97.3906 19.5437 98.1028 22.6327 97.6482 25.7467V25.7467C97.5543 26.3904 97.0023 26.8676 96.3519 26.8676H80.3268C80.6947 28.4431 81.5442 29.6174 82.6485 30.4551C84.086 31.5457 86.0187 32.1078 88.0002 32.1078C89.3346 32.1078 90.5399 31.8763 91.6787 31.4771ZM80.3936 22.7327H93.1059C92.8342 21.444 92.2819 20.3581 91.5115 19.5447C90.4952 18.4718 89.0126 17.779 87.0177 17.779C83.6721 17.779 81.178 19.7977 80.3936 22.7327Z" fill="#392B42"/>
<path fill-rule="evenodd" clip-rule="evenodd" d="M73.671 17.7985C73.671 17.9232 73.5699 18.0244 73.4451 18.0244H67.4072V28.7915C67.4072 30.2788 67.7866 31.0924 68.2003 31.5297C68.6059 31.9585 69.219 32.21 70.0888 32.21C70.1544 32.21 70.2195 32.2091 70.284 32.2075C72.5104 32.1518 74.8536 33.2068 75.1839 35.4093V35.4093L74.2027 35.7867C73.2367 36.1582 71.5806 36.4881 69.9455 36.4881C68.0382 36.4881 66.2398 35.9634 64.9082 34.725C63.5602 33.4714 62.8629 31.6471 62.8629 29.4056V18.0244H59.6174C59.366 18.0244 59.2261 17.7337 59.3829 17.5372L66.8728 8.15215C67.0498 7.93036 67.4072 8.05552 67.4072 8.33928V13.8076H69.6801C71.8842 13.8076 73.671 15.5944 73.671 17.7985V17.7985Z" fill="#392B42"/>
<path fill-rule="evenodd" clip-rule="evenodd" d="M150.965 17.942C150.965 18.0668 150.864 18.1679 150.739 18.1679H144.701V28.9351C144.701 30.4223 145.081 31.2359 145.494 31.6733C145.9 32.1021 146.513 32.3535 147.383 32.3535C147.448 32.3535 147.513 32.3527 147.578 32.3511C149.804 32.2954 152.147 33.3504 152.478 35.5529V35.5529L151.497 35.9303C150.531 36.3018 148.875 36.6317 147.239 36.6317C145.332 36.6317 143.534 36.1069 142.202 34.8685C140.854 33.6149 140.157 31.7906 140.157 29.5491V18.1679H136.911C136.66 18.1679 136.52 17.8773 136.677 17.6808L144.167 8.29571C144.344 8.07392 144.701 8.19908 144.701 8.48284V13.9511H146.974C149.178 13.9511 150.965 15.7379 150.965 17.942V17.942Z" fill="#392B42"/>
<path fill-rule="evenodd" clip-rule="evenodd" d="M176.872 17.4808C177.952 18.1099 178.862 18.9995 179.517 20.0731C180.239 21.2583 180.62 22.6178 180.62 24.0014H184.864C184.864 21.8396 184.27 19.7155 183.141 17.8636C182.067 16.1028 180.554 14.6588 178.756 13.6699L176.872 17.4808Z" fill="#E84A49"/>
<path fill-rule="evenodd" clip-rule="evenodd" d="M177.574 13.1039C175.496 12.2455 173.209 11.9971 170.985 12.3973C168.484 12.8473 166.194 14.0937 164.459 15.9507C162.723 17.8077 161.634 20.1758 161.354 22.7021C161.074 25.2284 161.618 27.7776 162.904 29.9697C164.191 32.1618 166.151 33.8794 168.494 34.8666C170.836 35.8538 173.434 36.0576 175.902 35.4477C178.369 34.8379 180.574 33.4469 182.186 31.4823C183.636 29.7162 184.538 27.5715 184.79 25.3117H180.504C180.28 26.5837 179.732 27.7825 178.906 28.7892C177.873 30.0466 176.463 30.9368 174.883 31.3271C173.304 31.7174 171.641 31.587 170.142 30.9552C168.643 30.3234 167.388 29.2241 166.565 27.8212C165.742 26.4182 165.394 24.7867 165.573 23.1699C165.752 21.5531 166.449 20.0375 167.56 18.849C168.671 17.6606 170.136 16.8628 171.737 16.5748C173.118 16.3263 174.537 16.4687 175.835 16.9794L175.693 16.9091L177.574 13.1039Z" fill="#392B42"/>
<path fill-rule="evenodd" clip-rule="evenodd" d="M51.9304 36.4469C51.8524 36.4469 51.7891 36.3836 51.7891 36.3056V18.521C51.7891 16.1212 53.7345 14.1758 56.1343 14.1758V14.1758C56.2329 14.1758 56.3129 14.2557 56.3129 14.3544V32.0645C56.3129 34.4848 54.3508 36.4469 51.9304 36.4469V36.4469Z" fill="#392B42"/>
<path fill-rule="evenodd" clip-rule="evenodd" d="M56.3743 11.2557C56.3743 11.4213 56.24 11.5557 56.0743 11.5557L54.7891 11.5557C53.1322 11.5557 51.7891 10.2125 51.7891 8.55566L51.7891 6.61539C51.7891 6.44971 51.9234 6.31539 52.0891 6.31539L53.3743 6.31539C55.0312 6.31539 56.3743 7.65854 56.3743 9.31539L56.3743 11.2557Z" fill="#8769F1"/>
<path fill-rule="evenodd" clip-rule="evenodd" d="M158.357 36.4469C155.937 36.4469 153.975 34.4848 153.975 32.0645V14.3544C153.975 14.2557 154.055 14.1758 154.153 14.1758V14.1758C156.553 14.1758 158.498 16.1212 158.498 18.521V36.3056C158.498 36.3836 158.435 36.4469 158.357 36.4469V36.4469Z" fill="#392B42"/>
<path fill-rule="evenodd" clip-rule="evenodd" d="M158.56 8.55566C158.56 10.2125 157.217 11.5557 155.56 11.5557L154.275 11.5557C154.109 11.5557 153.975 11.4213 153.975 11.2557L153.975 9.31539C153.975 7.65854 155.318 6.31539 156.975 6.31539L158.26 6.31539C158.426 6.31539 158.56 6.44971 158.56 6.61539L158.56 8.55566Z" fill="#8769F1"/>
<path fill-rule="evenodd" clip-rule="evenodd" d="M24.1901 19.8868C24.1901 20.1789 23.9198 20.4156 23.5864 20.4156H16.1417C12.808 20.4156 10.1055 18.0483 10.1055 15.128L10.1055 6.84419C10.1055 6.55216 10.3757 6.31543 10.7091 6.31543L18.1538 6.31543C21.4875 6.31543 24.1901 8.68275 24.1901 11.603V19.8868Z" fill="#8769F1"/>
<path fill-rule="evenodd" clip-rule="evenodd" d="M24.1901 23.06C24.1901 22.768 23.9198 22.5313 23.5864 22.5313L16.1417 22.5313C12.808 22.5312 10.1055 24.8986 10.1055 27.8188L10.1055 36.1027C10.1055 36.3947 10.3757 36.6314 10.7091 36.6314H18.1538C21.4875 36.6314 24.1901 34.2641 24.1901 31.3439L24.1901 23.06Z" fill="#E84A49"/>
<path fill-rule="evenodd" clip-rule="evenodd" d="M26.3359 19.8868C26.3359 20.1789 26.6062 20.4156 26.9396 20.4156H34.3843C37.718 20.4156 40.4205 18.0483 40.4205 15.128L40.4205 6.84419C40.4205 6.55216 40.1503 6.31543 39.8169 6.31543L32.3722 6.31543C29.0385 6.31543 26.3359 8.68275 26.3359 11.603L26.3359 19.8868Z" fill="#8769F1"/>
<path fill-rule="evenodd" clip-rule="evenodd" d="M26.3359 23.06C26.3359 22.768 26.6062 22.5313 26.9396 22.5313L34.3843 22.5313C37.718 22.5312 40.4205 24.8986 40.4205 27.8188L40.4205 36.1027C40.4205 36.3947 40.1503 36.6314 39.8169 36.6314H32.3722C29.0385 36.6314 26.3359 34.2641 26.3359 31.3439L26.3359 23.06Z" fill="#E84A49"/>
</svg>
