<svg width="190" height="74" viewBox="0 0 190 74" fill="none" xmlns="http://www.w3.org/2000/svg">
<path fill-rule="evenodd" clip-rule="evenodd" d="M117.636 66.9161C117.636 69.8432 115.263 72.2161 112.336 72.2161H111.477C111.311 72.2161 111.177 72.0818 111.177 71.9161V69.6467C108.389 71.7664 104.84 72.8007 101.649 72.8007C98.6142 72.8007 95.8155 71.956 93.7384 70.238C91.6246 68.4896 90.3969 65.9446 90.3969 62.893C90.3969 59.4575 92.043 56.7476 94.6451 54.967C97.1849 53.229 100.576 52.4007 104.221 52.4007C106.825 52.4007 109.228 52.7535 111.177 53.2064V52.7807C111.177 50.5109 110.477 48.9283 109.313 47.8881C108.118 46.8202 106.169 46.0879 103.227 46.0879C100.652 46.0879 97.409 46.8681 95.2239 47.9867L93.5085 48.8648C93.2023 49.0216 92.833 48.8295 92.7854 48.4889L92.5668 46.9218C92.219 44.4298 93.4412 41.9123 95.822 41.0981C98.2408 40.271 100.763 39.8334 103.403 39.8334C107.741 39.8334 111.349 40.9223 113.884 43.2482C116.445 45.5973 117.636 48.9537 117.636 52.8976V66.9161ZM111.177 59.3057C109.403 58.7962 107.064 58.4213 104.104 58.4213C101.732 58.4213 99.839 58.886 98.6045 59.6547C97.4604 60.3673 96.8559 61.3371 96.8559 62.7176C96.8559 64.1047 97.3368 64.9744 98.0376 65.5398C98.7943 66.1503 100.025 66.5755 101.766 66.5755C106.713 66.5755 110.571 63.3485 111.177 60.0751V59.3057Z" fill="#392B42"/>
<path fill-rule="evenodd" clip-rule="evenodd" d="M76.3312 40.418C76.4969 40.418 76.6312 40.5523 76.6312 40.718V41.8848C78.6764 40.5084 81.1428 39.8334 83.3241 39.8334C83.5598 39.8334 83.7922 39.8393 84.0216 39.8509C87.1687 40.0102 88.9109 43.2404 88.6086 46.3769L88.5542 46.9408C88.5352 47.1377 88.3342 47.2627 88.1492 47.1925L86.2263 46.4631C85.6523 46.2454 84.7817 46.0586 83.2656 46.0586C81.2835 46.0586 79.7028 46.7574 78.5944 48.0244C77.4647 49.3159 76.6605 51.391 76.6605 54.4173V66.9161C76.6605 69.8432 74.2876 72.2161 71.3605 72.2161H70.4722C70.3066 72.2161 70.1722 72.0818 70.1722 71.9161V46.4631V40.718C70.1722 40.5523 70.3066 40.418 70.4722 40.418H76.3312Z" fill="#392B42"/>
<path fill-rule="evenodd" clip-rule="evenodd" d="M57.2271 65.5471C60.0319 64.5113 63.3932 65.8076 63.9859 68.7381L64.0456 69.0332C64.0711 69.1593 64.0133 69.2876 63.9021 69.3521L62.9278 69.9176C59.3252 72.0084 55.6294 72.8007 51.7597 72.8007C46.6201 72.8007 42.1362 71.1837 38.9157 68.2506C35.6815 65.3051 33.844 61.1398 33.844 56.317C33.844 46.9896 40.6673 39.8334 50.1815 39.8334C55.5605 39.8334 59.7746 41.9208 62.4538 45.2794C65.1086 48.6075 66.1255 53.0178 65.4764 57.464V57.464C65.3423 58.383 64.5542 59.0643 63.6256 59.0643H40.7454C41.2706 61.3138 42.4835 62.9904 44.0602 64.1866C46.1126 65.7436 48.8721 66.5462 51.7012 66.5462C53.7137 66.5462 55.5206 66.1774 57.2271 65.5471ZM40.8407 53.1606H58.9911C58.603 51.3207 57.8145 49.7702 56.7146 48.6089C55.2636 47.077 53.1467 46.0879 50.2984 46.0879C45.5217 46.0879 41.9606 48.9701 40.8407 53.1606Z" fill="#392B42"/>
<path fill-rule="evenodd" clip-rule="evenodd" d="M31.2428 46.1386C31.2428 46.3042 31.1085 46.4386 30.9428 46.4386H22.2996V61.8116C22.2996 63.9351 22.8412 65.0967 23.4319 65.7211C24.0111 66.3334 24.8864 66.6924 26.1282 66.6924C26.5882 66.6924 27.029 66.6642 27.456 66.6118C30.088 66.289 32.8535 67.5972 33.2468 70.2195L33.403 71.2603L32.002 71.7992C30.6228 72.3296 28.2583 72.8006 25.9237 72.8006C23.2005 72.8006 20.6328 72.0514 18.7315 70.2832C16.8069 68.4934 15.8114 65.8887 15.8114 62.6884V46.4386H10.9108C10.6595 46.4386 10.5195 46.1479 10.6764 45.9514L21.7651 32.0568C21.9421 31.835 22.2996 31.9601 22.2996 32.2439V40.4179H25.9428C28.8699 40.4179 31.2428 42.7908 31.2428 45.7179V46.1386Z" fill="#392B42"/>
<path fill-rule="evenodd" clip-rule="evenodd" d="M141.601 46.3431C141.601 46.5088 141.467 46.6431 141.301 46.6431H132.658V62.0162C132.658 64.1397 133.2 65.3013 133.79 65.9257C134.369 66.5379 135.245 66.8969 136.487 66.8969C136.947 66.8969 137.387 66.8688 137.814 66.8164C140.446 66.4936 143.212 67.8018 143.605 70.4241L143.761 71.4649L142.36 72.0038C140.981 72.5342 138.617 73.0052 136.282 73.0052C133.559 73.0052 130.991 72.256 129.09 70.4878C127.165 68.698 126.17 66.0933 126.17 62.8929V46.6431H121.269C121.018 46.6431 120.878 46.3525 121.035 46.156L132.124 32.2613C132.301 32.0396 132.658 32.1647 132.658 32.4485V40.6225H136.301C139.228 40.6225 141.601 42.9954 141.601 45.9225V46.3431Z" fill="#392B42"/>
<path fill-rule="evenodd" clip-rule="evenodd" d="M178.589 45.6633C180.131 46.5614 181.43 47.8316 182.365 49.3644C183.396 51.0565 183.94 52.9974 183.94 54.9727H190C190 51.8863 189.151 48.8536 187.539 46.2097C186.007 43.6958 183.846 41.6341 181.278 40.2222L178.589 45.6633Z" fill="#FF3D82"/>
<path fill-rule="evenodd" clip-rule="evenodd" d="M179.592 39.4131C176.625 38.1877 173.361 37.833 170.185 38.4043C166.613 39.0469 163.345 40.8265 160.867 43.4779C158.389 46.1292 156.834 49.5104 156.434 53.1174C156.034 56.7243 156.81 60.364 158.647 63.4938C160.484 66.6236 163.283 69.076 166.628 70.4855C169.972 71.8949 173.682 72.186 177.205 71.3152C180.728 70.4444 183.875 68.4585 186.178 65.6534C188.248 63.1318 189.535 60.0697 189.896 56.8432H183.776C183.456 58.6593 182.673 60.371 181.493 61.8083C180.02 63.6036 178.006 64.8746 175.751 65.4319C173.496 65.9892 171.122 65.8029 168.981 64.9009C166.841 63.9988 165.049 62.4293 163.874 60.4262C162.698 58.4231 162.201 56.0937 162.457 53.7853C162.713 51.4768 163.708 49.3129 165.294 47.616C166.88 45.9191 168.972 44.7802 171.258 44.3689C173.232 44.0138 175.259 44.2177 177.113 44.948L176.907 44.8458L179.592 39.4131Z" fill="#392B42"/>
<path fill-rule="evenodd" clip-rule="evenodd" d="M0.201844 72.7422C0.0903686 72.7422 0 72.6518 0 72.5404V47.1481C0 43.7217 2.77765 40.944 6.20404 40.944V40.944C6.34485 40.944 6.459 41.0582 6.459 41.199V66.485C6.459 69.9408 3.65758 72.7422 0.201844 72.7422V72.7422Z" fill="#392B42"/>
<path fill-rule="evenodd" clip-rule="evenodd" d="M6.54668 36.7973C6.54668 37.0214 6.365 37.2031 6.14089 37.2031H4.05788C1.81678 37.2031 2.29894e-07 35.3863 1.31932e-07 33.1452L0 30.1269C-9.79619e-09 29.9028 0.181678 29.7211 0.405789 29.7211L2.4888 29.7211C4.72991 29.7211 6.54668 31.5379 6.54668 33.779V36.7973Z" fill="#8769F1"/>
<path fill-rule="evenodd" clip-rule="evenodd" d="M152.155 72.7422C148.699 72.7422 145.897 69.9408 145.897 66.485V41.199C145.897 41.0582 146.012 40.944 146.152 40.944V40.944C149.579 40.944 152.356 43.7217 152.356 47.1481V72.5404C152.356 72.6518 152.266 72.7422 152.155 72.7422V72.7422Z" fill="#392B42"/>
<path fill-rule="evenodd" clip-rule="evenodd" d="M152.444 33.1452C152.444 35.3863 150.627 37.2031 148.386 37.2031H146.303C146.079 37.2031 145.897 37.0214 145.897 36.7973L145.897 33.779C145.897 31.5379 147.714 29.7211 149.955 29.7211L152.038 29.7211C152.262 29.7211 152.444 29.9028 152.444 30.1269V33.1452Z" fill="#8769F1"/>
<path fill-rule="evenodd" clip-rule="evenodd" d="M95.1858 14.9254L87.2027 22.9085C83.7951 26.3161 77.8823 25.9281 73.9961 22.0419L65.3176 13.3634C64.929 12.9748 64.8902 12.3835 65.231 12.0428L74.8974 2.37639C78.305 -1.03122 84.2178 -0.643237 88.104 3.24297L95.1662 10.3052L103.149 2.3221C106.557 -1.08551 112.47 -0.697531 116.356 3.18867L125.034 11.8671C125.423 12.2558 125.462 12.847 125.121 13.1878L115.455 22.8542C112.047 26.2618 106.134 25.8738 102.248 21.9876L95.1858 14.9254ZM85.7866 5.56033L92.8514 12.6251L84.8854 20.5911C83.0343 22.4421 79.2153 22.6264 76.3135 19.7245L69.2487 12.6598L77.2147 4.69376C79.0658 2.84273 82.8848 2.65849 85.7866 5.56033ZM104.565 19.6702L97.5006 12.6055L105.467 4.63946C107.318 2.78843 111.137 2.6042 114.038 5.50604L121.103 12.5708L113.137 20.5368C111.286 22.3878 107.467 22.5721 104.565 19.6702Z" fill="url(#paint0_linear_37:36)"/>
<path opacity="0.1" d="M94.9703 10.0989L92.6457 12.4235" stroke="black"/>
<path opacity="0.1" d="M97.6844 12.813L95.3598 15.1376" stroke="black"/>
<defs>
<linearGradient id="paint0_linear_37:36" x1="65.2775" y1="12.6642" x2="125.738" y2="12.5708" gradientUnits="userSpaceOnUse">
<stop stop-color="#7C5EF1"/>
<stop offset="1" stop-color="#FF3D82"/>
</linearGradient>
</defs>
</svg>
